<?xml version="1.0" standalone="no"?>
<!DOCTYPE svg PUBLIC "-//W3C//DTD SVG 20010904//EN"
 "http://www.w3.org/TR/2001/REC-SVG-20010904/DTD/svg10.dtd">
<svg version="1.0" xmlns="http://www.w3.org/2000/svg"
 width="512.000000pt" height="512.000000pt" viewBox="0 0 512.000000 512.000000"
 preserveAspectRatio="xMidYMid meet">
<metadata>
Created by potrace 1.10, written by Peter Selinger 2001-2011
</metadata>
<g transform="translate(0.000000,512.000000) scale(0.100000,-0.100000)"
fill="#276678" stroke="none">
<path d="M1030 4515 c-25 -8 -59 -27 -77 -42 -30 -27 -491 -600 -539 -670 -26
-39 -31 -82 -13 -116 15 -27 480 -610 528 -660 65 -69 138 -94 223 -76 91 20
168 113 167 204 0 61 -18 100 -107 232 -45 66 -82 126 -82 132 0 14 1547 15
1694 1 55 -6 132 -19 170 -29 327 -90 586 -356 668 -687 31 -125 31 -323 0
-448 -85 -342 -342 -601 -687 -692 -95 -26 -115 -27 -430 -33 -368 -7 -365 -6
-424 -78 -60 -73 -64 -163 -11 -246 18 -28 46 -55 72 -69 42 -23 47 -23 378
-23 273 1 352 4 426 18 555 105 981 524 1099 1082 10 44 19 143 22 220 8 241
-33 429 -142 650 -163 331 -440 574 -788 690 -209 70 -176 68 -1164 72 l-893
4 89 132 c97 146 116 189 108 253 -15 135 -154 222 -287 179z"/>
</g>
</svg>
