<?xml version="1.0" standalone="no"?>
<!DOCTYPE svg PUBLIC "-//W3C//DTD SVG 20010904//EN"
 "http://www.w3.org/TR/2001/REC-SVG-20010904/DTD/svg10.dtd">
<svg version="1.0" xmlns="http://www.w3.org/2000/svg"
 width="512.000000pt" height="512.000000pt" viewBox="0 0 512.000000 512.000000"
 preserveAspectRatio="xMidYMid meet">
<metadata>
Created by potrace 1.10, written by Peter Selinger 2001-2011
</metadata>
<g transform="translate(0.000000,512.000000) scale(0.100000,-0.100000)"
fill="#000000" stroke="none">
<path d="M1035 4854 c-449 -85 -811 -409 -958 -859 -147 -449 -79 -912 196
-1333 200 -308 497 -608 1176 -1187 90 -77 275 -236 410 -352 259 -224 304
-253 391 -253 87 0 132 29 391 253 135 116 320 275 410 352 678 579 963 865
1169 1176 281 425 352 890 203 1344 -128 390 -418 690 -789 814 -144 48 -265
64 -433 58 -112 -4 -169 -11 -246 -31 -125 -32 -294 -115 -400 -194 -77 -58
-206 -184 -273 -267 l-32 -40 -32 40 c-67 83 -196 209 -273 267 -106 79 -275
161 -400 194 -84 22 -126 27 -265 30 -117 2 -188 -1 -245 -12z m365 -255 c95
-15 218 -61 312 -116 108 -63 270 -224 357 -355 72 -108 112 -138 181 -138 69
0 109 30 181 138 87 131 249 292 357 355 159 94 319 133 502 124 136 -6 250
-36 376 -97 356 -172 567 -539 567 -985 0 -260 -68 -477 -228 -722 -192 -294
-446 -545 -1265 -1248 -179 -154 -360 -310 -404 -347 -43 -37 -82 -68 -87 -68
-5 0 -44 31 -86 68 -43 37 -224 193 -403 347 -817 702 -1073 954 -1264 1248
-180 275 -253 543 -226 830 25 264 107 466 268 656 130 153 376 284 587 314
62 8 212 6 275 -4z"/>
</g>
</svg>
