<?xml version="1.0" standalone="no"?>
<!DOCTYPE svg PUBLIC "-//W3C//DTD SVG 20010904//EN"
 "http://www.w3.org/TR/2001/REC-SVG-20010904/DTD/svg10.dtd">
<svg version="1.0" xmlns="http://www.w3.org/2000/svg"
 width="512.000000pt" height="512.000000pt" viewBox="0 0 512.000000 512.000000"
 preserveAspectRatio="xMidYMid meet">
<metadata>
Created by potrace 1.10, written by Peter Selinger 2001-2011
</metadata>
<g transform="translate(0.000000,512.000000) scale(0.100000,-0.100000)"
fill="#cc0000" stroke="none">
<path d="M965 4714 c-469 -85 -830 -437 -936 -915 -32 -144 -33 -390 -2 -525
98 -421 381 -778 1058 -1336 77 -63 327 -263 555 -444 228 -182 458 -365 510
-407 52 -42 97 -77 100 -77 3 0 91 69 195 153 105 83 377 301 605 483 228 182
456 366 505 408 576 495 827 828 918 1220 31 135 30 381 -2 525 -106 482 -469
832 -945 916 -112 19 -318 19 -429 0 -158 -28 -328 -102 -467 -206 -103 -76
-243 -226 -315 -337 -33 -50 -62 -91 -65 -91 -3 0 -32 41 -65 91 -184 283
-484 491 -782 543 -107 19 -331 18 -438 -1z"/>
</g>
</svg>
